HIERARCHY
ROOT Hips
{
	OFFSET 0.000000 97.167313 0.000000
	CHANNELS 6 Xposition Yposition Zposition Xrotation Yrotation Zrotation
	JOINT Spine
	{
		OFFSET 0.000000 13.784798 0.064400
		CHANNELS 3 Xrotation Yrotation Zrotation
		JOINT Spine1
		{
			OFFSET 0.000000 12.037903 0.404700
			CHANNELS 3 Xrotation Yrotation Zrotation
			JOINT Spine2
			{
				OFFSET 0.000000 17.795601 0.420200
				CHANNELS 3 Xrotation Yrotation Zrotation
				JOINT Neck
				{
					OFFSET 0.000000 39.131302 11.954600
					CHANNELS 3 Xrotation Yrotation Zrotation
					JOINT Head
					{
						OFFSET 0.000000 14.456192 15.627699
						CHANNELS 3 Xrotation Yrotation Zrotation
						JOINT HeadTop_End
						{
							OFFSET 0.000000 15.703506 7.603401
							CHANNELS 3 Xrotation Yrotation Zrotation
							End Site
							{
								OFFSET 0.000000 17.447403 0.000000
							}
						}
					}
				}
				JOINT LeftShoulder
				{
					OFFSET 17.399500 24.608795 1.168800
					CHANNELS 3 Xrotation Yrotation Zrotation
					JOINT LeftArm
					{
						OFFSET 18.980635 5.765305 1.818600
						CHANNELS 3 Xrotation Yrotation Zrotation
						JOINT LeftForeArm
						{
							OFFSET 49.290169 0.000000 0.000000
							CHANNELS 3 Xrotation Yrotation Zrotation
							JOINT LeftHand
							{
								OFFSET 31.562012 0.000000 0.000000
								CHANNELS 3 Xrotation Yrotation Zrotation
								JOINT LeftHandThumb1
								{
									OFFSET 6.133995 -4.388519 7.076070
									CHANNELS 3 Xrotation Yrotation Zrotation
									JOINT LeftHandThumb2
									{
										OFFSET 6.037666 -3.485840 3.485847
										CHANNELS 3 Xrotation Yrotation Zrotation
										JOINT LeftHandThumb3
										{
											OFFSET 6.496506 -3.750763 3.750761
											CHANNELS 3 Xrotation Yrotation Zrotation
											JOINT LeftHandThumb4
											{
												OFFSET 5.616882 -3.242905 3.242910
												CHANNELS 3 Xrotation Yrotation Zrotation
												End Site
												{
													OFFSET -1.254608 7.132141 0.375429
												}
											}
										}
									}
								}
								JOINT LeftHandPinky1
								{
									OFFSET 18.920792 -0.453171 -11.426712
									CHANNELS 3 Xrotation Yrotation Zrotation
									JOINT LeftHandPinky2
									{
										OFFSET 4.919586 0.000000 0.000000
										CHANNELS 3 Xrotation Yrotation Zrotation
										JOINT LeftHandPinky3
										{
											OFFSET 5.233047 0.000000 0.000000
											CHANNELS 3 Xrotation Yrotation Zrotation
											JOINT LeftHandPinky4
											{
												OFFSET 5.571716 0.000000 0.000000
												CHANNELS 3 Xrotation Yrotation Zrotation
												End Site
												{
													OFFSET -3.459808 4.342407 -0.466164
												}
											}
										}
									}
								}
								JOINT LeftHandRing1
								{
									OFFSET 22.726120 -0.094986 -6.500475
									CHANNELS 3 Xrotation Yrotation Zrotation
									JOINT LeftHandRing2
									{
										OFFSET 6.408615 0.000000 0.000000
										CHANNELS 3 Xrotation Yrotation Zrotation
										JOINT LeftHandRing3
										{
											OFFSET 6.150223 0.000000 0.000000
											CHANNELS 3 Xrotation Yrotation Zrotation
											JOINT LeftHandRing4
											{
												OFFSET 6.145386 0.000000 0.000000
												CHANNELS 3 Xrotation Yrotation Zrotation
												End Site
												{
													OFFSET -3.671402 4.923981 -0.202372
												}
											}
										}
									}
								}
								JOINT LeftHandMiddle1
								{
									OFFSET 23.373947 0.000000 0.000001
									CHANNELS 3 Xrotation Yrotation Zrotation
									JOINT LeftHandMiddle2
									{
										OFFSET 6.996567 0.000000 0.000000
										CHANNELS 3 Xrotation Yrotation Zrotation
										JOINT LeftHandMiddle3
										{
											OFFSET 7.015945 0.000000 0.000000
											CHANNELS 3 Xrotation Yrotation Zrotation
											JOINT LeftHandMiddle4
											{
												OFFSET 7.721573 0.000000 0.000000
												CHANNELS 3 Xrotation Yrotation Zrotation
												End Site
												{
													OFFSET -4.651108 6.158463 0.251582
												}
											}
										}
									}
								}
								JOINT LeftHandIndex1
								{
									OFFSET 21.310577 -0.490082 6.209344
									CHANNELS 3 Xrotation Yrotation Zrotation
									JOINT LeftHandIndex2
									{
										OFFSET 7.536453 0.000000 0.000000
										CHANNELS 3 Xrotation Yrotation Zrotation
										JOINT LeftHandIndex3
										{
											OFFSET 7.512344 0.000000 0.000000
											CHANNELS 3 Xrotation Yrotation Zrotation
											JOINT LeftHandIndex4
											{
												OFFSET 10.212402 0.000000 0.000001
												CHANNELS 3 Xrotation Yrotation Zrotation
												End Site
												{
													OFFSET -5.180801 8.690506 1.388433
												}
											}
										}
									}
								}
							}
						}
					}
				}
				JOINT RightShoulder
				{
					OFFSET -17.399500 24.608795 1.168800
					CHANNELS 3 Xrotation Yrotation Zrotation
					JOINT RightArm
					{
						OFFSET -18.980635 5.765305 1.818600
						CHANNELS 3 Xrotation Yrotation Zrotation
						JOINT RightForeArm
						{
							OFFSET -49.290169 0.000000 0.000000
							CHANNELS 3 Xrotation Yrotation Zrotation
							JOINT RightHand
							{
								OFFSET -31.562012 0.000000 0.000000
								CHANNELS 3 Xrotation Yrotation Zrotation
								JOINT RightHandThumb1
								{
									OFFSET -6.133995 -4.388519 7.076070
									CHANNELS 3 Xrotation Yrotation Zrotation
									JOINT RightHandThumb2
									{
										OFFSET -6.037666 -3.485840 3.485847
										CHANNELS 3 Xrotation Yrotation Zrotation
										JOINT RightHandThumb3
										{
											OFFSET -6.496506 -3.750763 3.750761
											CHANNELS 3 Xrotation Yrotation Zrotation
											JOINT RightHandThumb4
											{
												OFFSET -5.616882 -3.242905 3.242910
												CHANNELS 3 Xrotation Yrotation Zrotation
												End Site
												{
													OFFSET 1.254608 7.132141 0.375429
												}
											}
										}
									}
								}
								JOINT RightHandIndex1
								{
									OFFSET -21.310577 -0.490082 6.209344
									CHANNELS 3 Xrotation Yrotation Zrotation
									JOINT RightHandIndex2
									{
										OFFSET -7.536453 0.000000 0.000000
										CHANNELS 3 Xrotation Yrotation Zrotation
										JOINT RightHandIndex3
										{
											OFFSET -7.512344 0.000000 0.000000
											CHANNELS 3 Xrotation Yrotation Zrotation
											JOINT RightHandIndex4
											{
												OFFSET -10.212402 0.000000 0.000001
												CHANNELS 3 Xrotation Yrotation Zrotation
												End Site
												{
													OFFSET 5.180801 8.690506 1.388433
												}
											}
										}
									}
								}
								JOINT RightHandMiddle1
								{
									OFFSET -23.373947 0.000000 0.000001
									CHANNELS 3 Xrotation Yrotation Zrotation
									JOINT RightHandMiddle2
									{
										OFFSET -6.996567 0.000000 0.000000
										CHANNELS 3 Xrotation Yrotation Zrotation
										JOINT RightHandMiddle3
										{
											OFFSET -7.015945 0.000000 0.000000
											CHANNELS 3 Xrotation Yrotation Zrotation
											JOINT RightHandMiddle4
											{
												OFFSET -7.721573 0.000000 0.000000
												CHANNELS 3 Xrotation Yrotation Zrotation
												End Site
												{
													OFFSET 4.651108 6.158463 0.251582
												}
											}
										}
									}
								}
								JOINT RightHandRing1
								{
									OFFSET -22.726120 -0.094986 -6.500475
									CHANNELS 3 Xrotation Yrotation Zrotation
									JOINT RightHandRing2
									{
										OFFSET -6.408615 0.000000 0.000000
										CHANNELS 3 Xrotation Yrotation Zrotation
										JOINT RightHandRing3
										{
											OFFSET -6.150223 0.000000 0.000000
											CHANNELS 3 Xrotation Yrotation Zrotation
											JOINT RightHandRing4
											{
												OFFSET -6.145386 0.000000 0.000000
												CHANNELS 3 Xrotation Yrotation Zrotation
												End Site
												{
													OFFSET 3.671402 4.923981 -0.202372
												}
											}
										}
									}
								}
								JOINT RightHandPinky1
								{
									OFFSET -18.920792 -0.453171 -11.426712
									CHANNELS 3 Xrotation Yrotation Zrotation
									JOINT RightHandPinky2
									{
										OFFSET -4.919586 0.000000 0.000000
										CHANNELS 3 Xrotation Yrotation Zrotation
										JOINT RightHandPinky3
										{
											OFFSET -5.233047 0.000000 0.000000
											CHANNELS 3 Xrotation Yrotation Zrotation
											JOINT RightHandPinky4
											{
												OFFSET -5.571716 0.000000 0.000000
												CHANNELS 3 Xrotation Yrotation Zrotation
												End Site
												{
													OFFSET 3.459808 4.342407 -0.466164
												}
											}
										}
									}
								}
							}
						}
					}
				}
			}
		}
	}
	JOINT LeftUpLeg
	{
		OFFSET 19.899099 -7.885101 -3.429500
		CHANNELS 3 Xrotation Yrotation Zrotation
		JOINT LeftLeg
		{
			OFFSET 1.745560 -36.997807 10.304700
			CHANNELS 3 Xrotation Yrotation Zrotation
			JOINT LeftFoot
			{
				OFFSET -1.745558 -29.803308 -13.615400
				CHANNELS 3 Xrotation Yrotation Zrotation
				JOINT LeftToeBase
				{
					OFFSET 1.181900 -18.539904 15.226099
					CHANNELS 3 Xrotation Yrotation Zrotation
					JOINT LeftToe_End
					{
						OFFSET -0.863701 1.402801 16.534700
						CHANNELS 3 Xrotation Yrotation Zrotation
						End Site
						{
							OFFSET 0.000000 16.616566 0.000000
						}
					}
				}
			}
		}
	}
	JOINT RightUpLeg
	{
		OFFSET -19.899099 -7.885101 -3.429500
		CHANNELS 3 Xrotation Yrotation Zrotation
		JOINT RightLeg
		{
			OFFSET -1.745560 -36.997807 10.304700
			CHANNELS 3 Xrotation Yrotation Zrotation
			JOINT RightFoot
			{
				OFFSET 1.745558 -29.803308 -13.615400
				CHANNELS 3 Xrotation Yrotation Zrotation
				JOINT RightToeBase
				{
					OFFSET -1.181900 -18.539904 15.226099
					CHANNELS 3 Xrotation Yrotation Zrotation
					JOINT RightToe_End
					{
						OFFSET 0.863701 1.402801 16.534700
						CHANNELS 3 Xrotation Yrotation Zrotation
						End Site
						{
							OFFSET 0.000000 16.616566 0.000000
						}
					}
				}
			}
		}
	}
}
MOTION
Frames: 4
Frame Time: 0.033333
0.468991 81.636185 -144.041534 3.002719 -24.107569 0.826515 2.660805 2.031224 2.462628 2.650010 -4.321486 0.653236 3.284590 -8.725650 4.578155 12.298038 6.888995 -4.576007 -0.858202 20.279168 8.525609 -0.000001 -0.000000 -0.000000 3.603837 5.151774 -11.852431 -54.023200 -33.337849 -51.066958 -0.000087 -81.541694 -0.000087 -58.656462 26.131271 38.625331 -14.557479 10.837982 12.229953 0.749585 -4.257758 13.305510 -10.783696 -23.179381 -4.132398 -0.000001 -0.000000 0.000000 -8.298291 -6.522653 -38.520136 2.848779 5.024370 -59.084415 0.876785 3.084722 -31.727506 -0.000001 0.000002 -0.000005 -6.054129 -0.166574 -49.857577 3.046273 5.137014 -61.313932 0.351716 2.001108 -19.935109 0.000001 -0.000000 0.000002 -2.430836 1.729233 -41.460935 2.952355 5.084741 -60.259931 1.321757 3.707976 -39.227843 0.000001 -0.000001 0.000004 -0.809536 2.578170 -31.496434 3.095912 5.163759 -61.866979 0.503772 2.378634 -23.913129 -0.000001 0.000001 -0.000001 -14.653969 2.374757 -4.186137 73.148731 138.640956 -52.995007 -0.000000 29.357642 0.000015 -49.407932 -7.916484 -31.689837 8.377160 -4.904149 11.022000 21.620219 -18.183885 -18.379221 -0.702967 -49.821200 -32.535176 0.000002 0.000000 0.000002 0.558946 -4.406581 25.436661 1.653056 -3.560347 49.799100 1.737709 -3.630040 51.149214 -0.000001 -0.000001 -0.000001 10.969815 -12.875592 52.800818 6.387607 -4.324419 111.833693 0.247381 -1.499107 18.739133 0.000000 -0.000001 -0.000001 3.705083 -7.151341 57.622447 5.328220 -4.608678 98.293416 1.627340 -3.538500 49.383999 -0.000000 0.000001 -0.000003 0.474827 -5.172993 58.987679 3.194314 -4.421940 71.674168 1.771409 -3.656898 51.679557 0.000000 -0.000002 0.000007 -38.185504 1.960219 16.331027 55.086845 -0.292577 0.032562 -10.270944 2.416884 -12.094752 -0.000000 0.000001 -0.000000 -0.000000 -0.000000 0.000000 -26.134104 -1.750441 -2.662435 47.751785 -3.034256 -3.768469 -23.151350 -3.044873 6.886274 -1.163069 0.000009 -0.000001 0.000000 0.000000 0.000000 
0.487692 80.115730 -149.875549 2.281489 -23.753779 0.304124 2.745759 1.859626 2.712102 2.722507 -4.399252 0.711482 3.360626 -8.808118 4.639117 12.118090 6.829911 -4.433336 -0.737346 20.027406 8.229671 0.000001 0.000001 -0.000000 3.544249 4.756015 -11.623018 -54.038845 -33.116449 -50.381576 0.000021 -81.882364 -0.000002 -58.768368 25.992606 38.870316 -14.557479 10.837978 12.229953 0.749583 -4.257755 13.305512 -10.783697 -23.179386 -4.132398 -0.000000 -0.000002 0.000000 -8.298291 -6.522657 -38.520139 2.848779 5.024375 -59.084422 0.876782 3.084725 -31.727499 -0.000001 0.000004 -0.000005 -6.054127 -0.166575 -49.857581 3.046273 5.137016 -61.313932 0.351715 2.001108 -19.935102 -0.000001 0.000000 0.000003 -2.430835 1.729232 -41.460939 2.952354 5.084741 -60.259925 1.321757 3.707975 -39.227839 0.000000 -0.000000 0.000008 -0.809533 2.578168 -31.496437 3.095911 5.163762 -61.866979 0.503772 2.378634 -23.913129 -0.000001 0.000000 -0.000002 -14.733698 2.115975 -4.463089 72.337529 138.834059 -52.653498 0.000004 29.080695 -0.000001 -49.752457 -7.371283 -31.498759 8.377163 -4.904150 11.021997 21.620214 -18.183876 -18.379223 -0.702970 -49.821200 -32.535166 0.000003 -0.000001 0.000002 0.558946 -4.406575 25.436661 1.653055 -3.560347 49.799094 1.737709 -3.630038 51.149210 -0.000000 -0.000001 -0.000001 10.969815 -12.875592 52.800818 6.387605 -4.324424 111.833693 0.247383 -1.499105 18.739133 0.000001 0.000000 -0.000001 3.705083 -7.151340 57.622447 5.328222 -4.608679 98.293416 1.627340 -3.538501 49.383999 -0.000001 0.000001 -0.000005 0.474828 -5.172994 58.987679 3.194312 -4.421943 71.674168 1.771407 -3.656903 51.679557 -0.000000 -0.000000 0.000002 -32.046585 4.221422 14.160780 64.411471 -2.863985 -0.608516 -13.880262 2.602569 -12.490380 -11.166283 -0.699135 3.537036 0.000000 -0.000000 0.000000 -32.005990 -1.628777 -0.426856 50.749904 -4.721870 -3.450962 -20.607987 -2.422373 5.791197 -0.000014 0.000002 -0.000036 0.000000 0.000002 -0.000000 
0.487692 80.115730 -149.875549 2.281489 -23.753779 0.304124 2.745759 1.859626 2.712102 2.722507 -4.399252 0.711482 3.360626 -8.808118 4.639117 12.118090 6.829911 -4.433336 -0.737346 20.027406 8.229671 0.000001 0.000001 -0.000000 3.544249 4.756015 -11.623018 -54.038845 -33.116449 -50.381576 0.000021 -81.882364 -0.000002 -58.768368 25.992606 38.870316 -14.557479 10.837978 12.229953 0.749583 -4.257755 13.305512 -10.783697 -23.179386 -4.132398 -0.000000 -0.000002 0.000000 -8.298291 -6.522657 -38.520139 2.848779 5.024375 -59.084422 0.876782 3.084725 -31.727499 -0.000001 0.000004 -0.000005 -6.054127 -0.166575 -49.857581 3.046273 5.137016 -61.313932 0.351715 2.001108 -19.935102 -0.000001 0.000000 0.000003 -2.430835 1.729232 -41.460939 2.952354 5.084741 -60.259925 1.321757 3.707975 -39.227839 0.000000 -0.000000 0.000008 -0.809533 2.578168 -31.496437 3.095911 5.163762 -61.866979 0.503772 2.378634 -23.913129 -0.000001 0.000000 -0.000002 -14.733698 2.115975 -4.463089 72.337529 138.834059 -52.653498 0.000004 29.080695 -0.000001 -49.752457 -7.371283 -31.498759 8.377163 -4.904150 11.021997 21.620214 -18.183876 -18.379223 -0.702970 -49.821200 -32.535166 0.000003 -0.000001 0.000002 0.558946 -4.406575 25.436661 1.653055 -3.560347 49.799094 1.737709 -3.630038 51.149210 -0.000000 -0.000001 -0.000001 10.969815 -12.875592 52.800818 6.387605 -4.324424 111.833693 0.247383 -1.499105 18.739133 0.000001 0.000000 -0.000001 3.705083 -7.151340 57.622447 5.328222 -4.608679 98.293416 1.627340 -3.538501 49.383999 -0.000001 0.000001 -0.000005 0.474828 -5.172994 58.987679 3.194312 -4.421943 71.674168 1.771407 -3.656903 51.679557 -0.000000 -0.000000 0.000002 -32.046585 4.221422 14.160780 64.411471 -2.863985 -0.608516 -13.880262 2.602569 -12.490380 -11.166283 -0.699135 3.537036 0.000000 -0.000000 0.000000 -32.005990 -1.628777 -0.426856 50.749904 -4.721870 -3.450962 -20.607987 -2.422373 5.791197 -0.000014 0.000002 -0.000036 0.000000 0.000002 -0.000000 
0.487692 80.115730 -149.875549 2.281489 -23.753779 0.304124 2.745759 1.859626 2.712102 2.722507 -4.399252 0.711482 3.360626 -8.808118 4.639117 12.118090 6.829911 -4.433336 -0.737346 20.027406 8.229671 0.000001 0.000001 -0.000000 3.544249 4.756015 -11.623018 -54.038845 -33.116449 -50.381576 0.000021 -81.882364 -0.000002 -58.768368 25.992606 38.870316 -14.557479 10.837978 12.229953 0.749583 -4.257755 13.305512 -10.783697 -23.179386 -4.132398 -0.000000 -0.000002 0.000000 -8.298291 -6.522657 -38.520139 2.848779 5.024375 -59.084422 0.876782 3.084725 -31.727499 -0.000001 0.000004 -0.000005 -6.054127 -0.166575 -49.857581 3.046273 5.137016 -61.313932 0.351715 2.001108 -19.935102 -0.000001 0.000000 0.000003 -2.430835 1.729232 -41.460939 2.952354 5.084741 -60.259925 1.321757 3.707975 -39.227839 0.000000 -0.000000 0.000008 -0.809533 2.578168 -31.496437 3.095911 5.163762 -61.866979 0.503772 2.378634 -23.913129 -0.000001 0.000000 -0.000002 -14.733698 2.115975 -4.463089 72.337529 138.834059 -52.653498 0.000004 29.080695 -0.000001 -49.752457 -7.371283 -31.498759 8.377163 -4.904150 11.021997 21.620214 -18.183876 -18.379223 -0.702970 -49.821200 -32.535166 0.000003 -0.000001 0.000002 0.558946 -4.406575 25.436661 1.653055 -3.560347 49.799094 1.737709 -3.630038 51.149210 -0.000000 -0.000001 -0.000001 10.969815 -12.875592 52.800818 6.387605 -4.324424 111.833693 0.247383 -1.499105 18.739133 0.000001 0.000000 -0.000001 3.705083 -7.151340 57.622447 5.328222 -4.608679 98.293416 1.627340 -3.538501 49.383999 -0.000001 0.000001 -0.000005 0.474828 -5.172994 58.987679 3.194312 -4.421943 71.674168 1.771407 -3.656903 51.679557 -0.000000 -0.000000 0.000002 -32.046585 4.221422 14.160780 64.411471 -2.863985 -0.608516 -13.880262 2.602569 -12.490380 -11.166283 -0.699135 3.537036 0.000000 -0.000000 0.000000 -32.005990 -1.628777 -0.426856 50.749904 -4.721870 -3.450962 -20.607987 -2.422373 5.791197 -0.000014 0.000002 -0.000036 0.000000 0.000002 -0.000000 
